+15_ID_stride6.mot
nRows=6
nColumns=38

name +15_ID_stride6.mot
datacolumns 38
datarows 6
range 3.0250000000 3.0500000000
endheader
time	pelvis_tilt_moment	pelvis_list_moment	pelvis_rotation_moment	pelvis_tx_force	pelvis_ty_force	pelvis_tz_force	hip_flexion_r_moment	hip_adduction_r_moment	hip_rotation_r_moment	knee_angle_r_moment	ankle_angle_r_moment	subtalar_angle_r_moment	mtp_angle_r_moment	hip_flexion_l_moment	hip_adduction_l_moment	hip_rotation_l_moment	knee_angle_l_moment	ankle_angle_l_moment	subtalar_angle_l_moment	mtp_angle_l_moment	lumbar_extension_moment	lumbar_bending_moment	lumbar_rotation_moment	arm_flex_r_moment	arm_add_r_moment	arm_rot_r_moment	elbow_flex_r_moment	pro_sup_r_moment	wrist_flex_r_moment	wrist_dev_r_moment	arm_flex_l_moment	arm_add_l_moment	arm_rot_l_moment	elbow_flex_l_moment	pro_sup_l_moment	wrist_flex_l_moment	wrist_dev_l_moment
        3.0250000000	      -24.2518240158	      -68.1750725773	      -29.0435653487	       -6.6152361695	      237.2145062633	      265.3633259592	     -173.8729325610	      -18.4495884943	       -1.7904899520	      -80.1397318946	       -0.5492287854	       -0.8754538717	        0.1318245463	       95.8931696799	      -51.8880329153	       11.0416588559	       41.3272676777	        4.2062230142	       -1.1961644033	        0.1433512643	       33.0544636350	      -13.2718323203	        3.7778039207	       -0.4714187996	       -0.1560147977	        0.2031430360	        1.4640036479	       -0.0104050116	        0.0703054811	       -0.1185303408	       -2.0471341504	        1.3414446371	        0.5991398101	        1.0157964743	       -0.0152457656	        0.0632350021	       -0.0905323766	
        3.0300000000	        6.7086056368	      -21.5741568590	      -21.7346015898	      -12.9159433657	      354.5122825760	      257.3704967426	     -116.9274664496	      -24.8131257021	        3.7864630673	      -44.3886296580	        7.7198019648	        5.1592767700	        0.1979986617	       85.8430532605	      -42.9977999515	       11.7207714477	       40.1153911412	        4.4631280942	       -1.1801789478	        0.1826151699	       41.6473246767	      -22.8033175101	        0.8277550782	       -1.6313873804	        0.1354751596	        0.2826132696	        1.9146433534	       -0.0190050628	        0.0790411480	       -0.1474374842	       -2.8202308743	        1.2947159207	        0.8538800333	        1.4352460222	       -0.0172885580	        0.1035924244	       -0.1121830415	
        3.0350000000	       39.1997542853	       21.9618632818	      -14.3850195940	      -15.0956305394	      417.3892923571	      210.5787420291	      -73.8682128213	      -37.1301727912	       10.1668566065	      -19.0766252970	        6.1448021206	        7.9873817676	        0.2544059861	       79.2523129256	      -33.2782321905	       11.8370773515	       38.7297082238	        4.7224108717	       -1.1828727097	        0.2195338451	       50.1950673056	      -31.1573171574	       -0.7399921304	       -2.3693041175	        0.6002162376	        0.4873893843	        2.4090301061	       -0.0246227804	        0.1018776870	       -0.1806649828	       -3.3635519300	        1.0613902741	        0.8760515480	        1.9116906121	       -0.0253678511	        0.1246525320	       -0.1456291353	
        3.0400000000	       70.0383705048	       71.6263881890	       -3.0110775531	       -5.7344314573	      401.3788965759	      117.4556531512	      -33.7281228072	      -53.3736828016	       20.0300206163	        5.2289305795	       -0.6903436726	       12.5148166804	        0.2968005588	       78.1274619780	      -23.7958493525	       11.5734953903	       37.4712984133	        4.9579685305	       -1.1883893498	        0.2503824273	       55.5083214969	      -35.3198032132	       -0.6924133991	       -2.3661750800	        1.1017177080	        0.7309980305	        2.8748478016	       -0.0283806903	        0.1301013581	       -0.2138883063	       -3.3700108668	        0.7568192861	        0.7866194365	        2.3765770693	       -0.0373823395	        0.1244953481	       -0.1849595316	
        3.0450000000	       82.7924789853	       90.0648292533	       10.8841760100	       19.6315635013	      327.8465178239	        7.2287420402	      -26.1968432575	      -66.8299305120	       32.4365170181	       13.4229288586	      -15.4739352340	       19.2857967098	        0.3077702117	       78.9699099084	      -15.5457101056	       10.8349310327	       36.4206390451	        5.0961922833	       -1.1853425291	        0.2701945103	       55.8028252647	      -34.8609236754	        0.0742456962	       -2.0358377118	        1.3836340301	        0.8880697702	        3.1931083858	       -0.0310647255	        0.1514641012	       -0.2383099557	       -3.1394583096	        0.6173095859	        0.6001048924	        2.7271732027	       -0.0490120694	        0.1164836230	       -0.2188655054	
        3.0500000000	       86.3121330559	       93.5368807412	       24.3194018871	       54.9259303141	      189.3795041076	      -84.8589300786	      -35.5785722999	      -74.5280378607	       44.2643646830	       14.8371747396	      -37.7085519248	       27.5300142263	        0.3090048865	       82.1568689751	       -8.7510140723	        9.7405307669	       35.4652477485	        5.1583408278	       -1.1609227750	        0.2803809903	       52.3450286869	      -29.1823194221	        1.8233605340	       -1.2379524632	        1.4979521397	        0.9612152244	        3.3600510056	       -0.0331973134	        0.1630882017	       -0.2518011785	       -2.5467487083	        0.5767011610	        0.4318877816	        2.9349563731	       -0.0573106751	        0.0995961176	       -0.2406959682	
